<?xml version="1.0" encoding="UTF-8" standalone="no"?><svg xmlns="http://www.w3.org/2000/svg" xmlns:xlink="http://www.w3.org/1999/xlink" contentScriptType="application/ecmascript" contentStyleType="text/css" height="510px" preserveAspectRatio="none" style="width:629px;height:510px;" version="1.1" viewBox="0 0 629 510" width="629px" zoomAndPan="magnify"><defs/><g><line style="stroke: #383838; stroke-width: 1.0; stroke-dasharray: 5.0,5.0;" x1="27" x2="27" y1="82.2969" y2="422.7578"/><line style="stroke: #383838; stroke-width: 1.0; stroke-dasharray: 5.0,5.0;" x1="171.5" x2="171.5" y1="82.2969" y2="422.7578"/><line style="stroke: #383838; stroke-width: 1.0; stroke-dasharray: 5.0,5.0;" x1="422" x2="422" y1="82.2969" y2="422.7578"/><line style="stroke: #383838; stroke-width: 1.0; stroke-dasharray: 5.0,5.0;" x1="556" x2="556" y1="82.2969" y2="422.7578"/><text fill="#000000" font-family="sans-serif" font-size="14" lengthAdjust="spacingAndGlyphs" textLength="32" x="8" y="78.9951">User</text><ellipse cx="27" cy="13" fill="#F8F8F8" rx="8" ry="8" style="stroke: #383838; stroke-width: 2.0;"/><path d="M27,21 L27,48 M14,29 L40,29 M27,48 L14,63 M27,48 L40,63 " fill="none" style="stroke: #383838; stroke-width: 2.0;"/><text fill="#000000" font-family="sans-serif" font-size="14" lengthAdjust="spacingAndGlyphs" textLength="32" x="8" y="434.7529">User</text><ellipse cx="27" cy="448.0547" fill="#F8F8F8" rx="8" ry="8" style="stroke: #383838; stroke-width: 2.0;"/><path d="M27,456.0547 L27,483.0547 M14,464.0547 L40,464.0547 M27,483.0547 L14,498.0547 M27,483.0547 L40,498.0547 " fill="none" style="stroke: #383838; stroke-width: 2.0;"/><rect fill="#F8F8F8" height="30.2969" style="stroke: #383838; stroke-width: 1.5;" width="91" x="126.5" y="51"/><text fill="#000000" font-family="sans-serif" font-size="14" lengthAdjust="spacingAndGlyphs" textLength="77" x="133.5" y="70.9951">User Agent</text><rect fill="#F8F8F8" height="30.2969" style="stroke: #383838; stroke-width: 1.5;" width="91" x="126.5" y="421.7578"/><text fill="#000000" font-family="sans-serif" font-size="14" lengthAdjust="spacingAndGlyphs" textLength="77" x="133.5" y="441.7529">User Agent</text><rect fill="#F8F8F8" height="30.2969" style="stroke: #383838; stroke-width: 1.5;" width="124" x="360" y="51"/><text fill="#000000" font-family="sans-serif" font-size="14" lengthAdjust="spacingAndGlyphs" textLength="110" x="367" y="70.9951">Service Provider</text><rect fill="#F8F8F8" height="30.2969" style="stroke: #383838; stroke-width: 1.5;" width="124" x="360" y="421.7578"/><text fill="#000000" font-family="sans-serif" font-size="14" lengthAdjust="spacingAndGlyphs" textLength="110" x="367" y="441.7529">Service Provider</text><rect fill="#F8F8F8" height="30.2969" style="stroke: #383838; stroke-width: 1.5;" width="124" x="494" y="51"/><text fill="#000000" font-family="sans-serif" font-size="14" lengthAdjust="spacingAndGlyphs" textLength="110" x="501" y="70.9951">Identity Provider</text><rect fill="#F8F8F8" height="30.2969" style="stroke: #383838; stroke-width: 1.5;" width="124" x="494" y="421.7578"/><text fill="#000000" font-family="sans-serif" font-size="14" lengthAdjust="spacingAndGlyphs" textLength="110" x="501" y="441.7529">Identity Provider</text><polygon fill="#383838" points="160,109.4297,170,113.4297,160,117.4297,164,113.4297" style="stroke: #383838; stroke-width: 1.0;"/><line style="stroke: #383838; stroke-width: 1.0;" x1="27" x2="166" y1="113.4297" y2="113.4297"/><text fill="#000000" font-family="sans-serif" font-size="13" lengthAdjust="spacingAndGlyphs" textLength="96" x="34" y="108.3638">Access Service</text><polygon fill="#383838" points="410,138.5625,420,142.5625,410,146.5625,414,142.5625" style="stroke: #383838; stroke-width: 1.0;"/><line style="stroke: #383838; stroke-width: 1.0;" x1="172" x2="416" y1="142.5625" y2="142.5625"/><text fill="#000000" font-family="sans-serif" font-size="13" lengthAdjust="spacingAndGlyphs" textLength="174" x="179" y="137.4966">Brwoser requests Resource</text><polygon fill="#383838" points="183,167.6953,173,171.6953,183,175.6953,179,171.6953" style="stroke: #383838; stroke-width: 1.0;"/><line style="stroke: #383838; stroke-width: 1.0;" x1="177" x2="421" y1="171.6953" y2="171.6953"/><text fill="#000000" font-family="sans-serif" font-size="13" lengthAdjust="spacingAndGlyphs" textLength="92" x="189" y="166.6294">Redirect to IdP</text><polygon fill="#383838" points="544,196.8281,554,200.8281,544,204.8281,548,200.8281" style="stroke: #383838; stroke-width: 1.0;"/><line style="stroke: #383838; stroke-width: 1.0;" x1="172" x2="550" y1="200.8281" y2="200.8281"/><text fill="#000000" font-family="sans-serif" font-size="13" lengthAdjust="spacingAndGlyphs" textLength="189" x="179" y="195.7622">Browser Request SAML Token</text><polygon fill="#383838" points="183,225.9609,173,229.9609,183,233.9609,179,229.9609" style="stroke: #383838; stroke-width: 1.0;"/><line style="stroke: #383838; stroke-width: 1.0;" x1="177" x2="555" y1="229.9609" y2="229.9609"/><text fill="#000000" font-family="sans-serif" font-size="13" lengthAdjust="spacingAndGlyphs" textLength="110" x="189" y="224.895">401 Authenticate</text><polygon fill="#383838" points="38,255.0938,28,259.0938,38,263.0938,34,259.0938" style="stroke: #383838; stroke-width: 1.0;"/><line style="stroke: #383838; stroke-width: 1.0;" x1="32" x2="171" y1="259.0938" y2="259.0938"/><text fill="#000000" font-family="sans-serif" font-size="13" lengthAdjust="spacingAndGlyphs" textLength="121" x="44" y="254.0278">Display Login Form</text><polygon fill="#383838" points="160,284.2266,170,288.2266,160,292.2266,164,288.2266" style="stroke: #383838; stroke-width: 1.0;"/><line style="stroke: #383838; stroke-width: 1.0;" x1="27" x2="166" y1="288.2266" y2="288.2266"/><text fill="#000000" font-family="sans-serif" font-size="13" lengthAdjust="spacingAndGlyphs" textLength="82" x="34" y="283.1606">Authenticate</text><polygon fill="#383838" points="544,313.3594,554,317.3594,544,321.3594,548,317.3594" style="stroke: #383838; stroke-width: 1.0;"/><line style="stroke: #383838; stroke-width: 1.0;" x1="172" x2="550" y1="317.3594" y2="317.3594"/><text fill="#000000" font-family="sans-serif" font-size="13" lengthAdjust="spacingAndGlyphs" textLength="170" x="179" y="312.2935">Authentication Information</text><polygon fill="#383838" points="183,342.4922,173,346.4922,183,350.4922,179,346.4922" style="stroke: #383838; stroke-width: 1.0;"/><line style="stroke: #383838; stroke-width: 1.0;" x1="177" x2="555" y1="346.4922" y2="346.4922"/><text fill="#000000" font-family="sans-serif" font-size="13" lengthAdjust="spacingAndGlyphs" textLength="78" x="189" y="341.4263">SAML Token</text><polygon fill="#383838" points="410,371.625,420,375.625,410,379.625,414,375.625" style="stroke: #383838; stroke-width: 1.0;"/><line style="stroke: #383838; stroke-width: 1.0;" x1="172" x2="416" y1="375.625" y2="375.625"/><text fill="#000000" font-family="sans-serif" font-size="13" lengthAdjust="spacingAndGlyphs" textLength="226" x="179" y="370.5591">Request Resource with SAML Token</text><polygon fill="#383838" points="183,400.7578,173,404.7578,183,408.7578,179,404.7578" style="stroke: #383838; stroke-width: 1.0;"/><line style="stroke: #383838; stroke-width: 1.0;" x1="177" x2="421" y1="404.7578" y2="404.7578"/><text fill="#000000" font-family="sans-serif" font-size="13" lengthAdjust="spacingAndGlyphs" textLength="59" x="189" y="399.6919">Resource</text><!--
@startuml
skinparam monochrome true
skinparam shadowing false

actor U as "User"
participant UA as "User Agent"
participant SP as "Service Provider"
participant IDP as "Identity Provider"

U -> UA: Access Service
UA->SP: Brwoser requests Resource
SP->UA: Redirect to IdP
 
UA->IDP: Browser Request SAML Token
IDP-> UA: 401 Authenticate

UA->U: Display Login Form
U->UA: Authenticate

UA->IDP: Authentication Information
IDP->UA: SAML Token

UA->SP: Request Resource with SAML Token
SP->UA: Resource
@enduml

PlantUML version 1.2019.01(Sat Feb 09 16:32:04 CET 2019)
(LGPL source distribution)
Java Runtime: OpenJDK Runtime Environment
JVM: OpenJDK 64-Bit Server VM
Java Version: 11.0.9.1+11
Operating System: Linux
OS Version: 5.9.16-200.fc33.x86_64
Default Encoding: UTF-8
Language: en
Country: US
--></g></svg>