<?xml version="1.0" encoding="UTF-8" standalone="no"?><svg xmlns="http://www.w3.org/2000/svg" xmlns:xlink="http://www.w3.org/1999/xlink" contentScriptType="application/ecmascript" contentStyleType="text/css" height="727px" preserveAspectRatio="none" style="width:653px;height:727px;" version="1.1" viewBox="0 0 653 727" width="653px" zoomAndPan="magnify"><defs/><g><line style="stroke: #383838; stroke-width: 1.0; stroke-dasharray: 5.0,5.0;" x1="27" x2="27" y1="82.2969" y2="639.9531"/><line style="stroke: #383838; stroke-width: 1.0; stroke-dasharray: 5.0,5.0;" x1="186.5" x2="186.5" y1="82.2969" y2="639.9531"/><line style="stroke: #383838; stroke-width: 1.0; stroke-dasharray: 5.0,5.0;" x1="392.5" x2="392.5" y1="82.2969" y2="639.9531"/><line style="stroke: #383838; stroke-width: 1.0; stroke-dasharray: 5.0,5.0;" x1="555.5" x2="555.5" y1="82.2969" y2="639.9531"/><text fill="#000000" font-family="sans-serif" font-size="14" lengthAdjust="spacingAndGlyphs" textLength="32" x="8" y="78.9951">User</text><ellipse cx="27" cy="13" fill="#F8F8F8" rx="8" ry="8" style="stroke: #383838; stroke-width: 2.0;"/><path d="M27,21 L27,48 M14,29 L40,29 M27,48 L14,63 M27,48 L40,63 " fill="none" style="stroke: #383838; stroke-width: 2.0;"/><text fill="#000000" font-family="sans-serif" font-size="14" lengthAdjust="spacingAndGlyphs" textLength="32" x="8" y="651.9482">User</text><ellipse cx="27" cy="665.25" fill="#F8F8F8" rx="8" ry="8" style="stroke: #383838; stroke-width: 2.0;"/><path d="M27,673.25 L27,700.25 M14,681.25 L40,681.25 M27,700.25 L14,715.25 M27,700.25 L40,715.25 " fill="none" style="stroke: #383838; stroke-width: 2.0;"/><rect fill="#F8F8F8" height="30.2969" style="stroke: #383838; stroke-width: 1.5;" width="71" x="151.5" y="51"/><text fill="#000000" font-family="sans-serif" font-size="14" lengthAdjust="spacingAndGlyphs" textLength="57" x="158.5" y="70.9951">Browser</text><rect fill="#F8F8F8" height="30.2969" style="stroke: #383838; stroke-width: 1.5;" width="71" x="151.5" y="638.9531"/><text fill="#000000" font-family="sans-serif" font-size="14" lengthAdjust="spacingAndGlyphs" textLength="57" x="158.5" y="658.9482">Browser</text><rect fill="#F8F8F8" height="30.2969" style="stroke: #383838; stroke-width: 1.5;" width="131" x="327.5" y="51"/><text fill="#000000" font-family="sans-serif" font-size="14" lengthAdjust="spacingAndGlyphs" textLength="117" x="334.5" y="70.9951">Normale Website</text><rect fill="#F8F8F8" height="30.2969" style="stroke: #383838; stroke-width: 1.5;" width="131" x="327.5" y="638.9531"/><text fill="#000000" font-family="sans-serif" font-size="14" lengthAdjust="spacingAndGlyphs" textLength="117" x="334.5" y="658.9482">Normale Website</text><rect fill="#F8F8F8" height="30.2969" style="stroke: #383838; stroke-width: 1.5;" width="174" x="468.5" y="51"/><text fill="#000000" font-family="sans-serif" font-size="14" lengthAdjust="spacingAndGlyphs" textLength="160" x="475.5" y="70.9951">Website des Angreifers</text><rect fill="#F8F8F8" height="30.2969" style="stroke: #383838; stroke-width: 1.5;" width="174" x="468.5" y="638.9531"/><text fill="#000000" font-family="sans-serif" font-size="14" lengthAdjust="spacingAndGlyphs" textLength="160" x="475.5" y="658.9482">Website des Angreifers</text><polygon fill="#383838" points="175,109.4297,185,113.4297,175,117.4297,179,113.4297" style="stroke: #383838; stroke-width: 1.0;"/><line style="stroke: #383838; stroke-width: 1.0;" x1="27" x2="181" y1="113.4297" y2="113.4297"/><text fill="#000000" font-family="sans-serif" font-size="13" lengthAdjust="spacingAndGlyphs" textLength="136" x="34" y="108.3638">navigiert zu Webseite</text><polygon fill="#383838" points="381,138.5625,391,142.5625,381,146.5625,385,142.5625" style="stroke: #383838; stroke-width: 1.0;"/><line style="stroke: #383838; stroke-width: 1.0;" x1="187" x2="387" y1="142.5625" y2="142.5625"/><text fill="#000000" font-family="sans-serif" font-size="13" lengthAdjust="spacingAndGlyphs" textLength="151" x="194" y="137.4966">Zugriff auf die Webseite</text><polygon fill="#383838" points="198,167.6953,188,171.6953,198,175.6953,194,171.6953" style="stroke: #383838; stroke-width: 1.0;"/><line style="stroke: #383838; stroke-width: 1.0;" x1="192" x2="392" y1="171.6953" y2="171.6953"/><text fill="#000000" font-family="sans-serif" font-size="13" lengthAdjust="spacingAndGlyphs" textLength="176" x="204" y="166.6294">Login-Maske wird angezeigt</text><polygon fill="#383838" points="38,181.6953,28,185.6953,38,189.6953,34,185.6953" style="stroke: #383838; stroke-width: 1.0;"/><line style="stroke: #383838; stroke-width: 1.0;" x1="32" x2="186" y1="185.6953" y2="185.6953"/><polygon fill="#383838" points="175,210.8281,185,214.8281,175,218.8281,179,214.8281" style="stroke: #383838; stroke-width: 1.0;"/><line style="stroke: #383838; stroke-width: 1.0;" x1="27" x2="181" y1="214.8281" y2="214.8281"/><text fill="#000000" font-family="sans-serif" font-size="13" lengthAdjust="spacingAndGlyphs" textLength="77" x="34" y="209.7622">Login Daten</text><polygon fill="#383838" points="381,239.9609,391,243.9609,381,247.9609,385,243.9609" style="stroke: #383838; stroke-width: 1.0;"/><line style="stroke: #383838; stroke-width: 1.0;" x1="187" x2="387" y1="243.9609" y2="243.9609"/><text fill="#000000" font-family="sans-serif" font-size="13" lengthAdjust="spacingAndGlyphs" textLength="77" x="194" y="238.895">Login Daten</text><polygon fill="#383838" points="198,269.0938,188,273.0938,198,277.0938,194,273.0938" style="stroke: #383838; stroke-width: 1.0;"/><line style="stroke: #383838; stroke-width: 1.0;" x1="192" x2="392" y1="273.0938" y2="273.0938"/><text fill="#000000" font-family="sans-serif" font-size="13" lengthAdjust="spacingAndGlyphs" textLength="66" x="204" y="268.0278">Session-Id</text><line style="stroke: #383838; stroke-width: 1.0;" x1="187" x2="229" y1="317.3594" y2="317.3594"/><line style="stroke: #383838; stroke-width: 1.0;" x1="229" x2="229" y1="317.3594" y2="330.3594"/><line style="stroke: #383838; stroke-width: 1.0;" x1="188" x2="229" y1="330.3594" y2="330.3594"/><polygon fill="#383838" points="198,326.3594,188,330.3594,198,334.3594,194,330.3594" style="stroke: #383838; stroke-width: 1.0;"/><text fill="#000000" font-family="sans-serif" font-size="13" lengthAdjust="spacingAndGlyphs" textLength="95" x="249" y="297.1606">Session-Id wird</text><text fill="#000000" font-family="sans-serif" font-size="13" lengthAdjust="spacingAndGlyphs" textLength="150" x="194" y="312.2935">im Browser gespeichert</text><polygon fill="#383838" points="175,355.4922,185,359.4922,175,363.4922,179,359.4922" style="stroke: #383838; stroke-width: 1.0;"/><line style="stroke: #383838; stroke-width: 1.0;" x1="27" x2="181" y1="359.4922" y2="359.4922"/><text fill="#000000" font-family="sans-serif" font-size="13" lengthAdjust="spacingAndGlyphs" textLength="103" x="34" y="354.4263">surft im Internet</text><polygon fill="#383838" points="543.5,384.625,553.5,388.625,543.5,392.625,547.5,388.625" style="stroke: #383838; stroke-width: 1.0;"/><line style="stroke: #383838; stroke-width: 1.0;" x1="187" x2="549.5" y1="388.625" y2="388.625"/><text fill="#000000" font-family="sans-serif" font-size="13" lengthAdjust="spacingAndGlyphs" textLength="152" x="194" y="383.5591">surft auf Angreifer Seite</text><polygon fill="#383838" points="198,413.7578,188,417.7578,198,421.7578,194,417.7578" style="stroke: #383838; stroke-width: 1.0;"/><line style="stroke: #383838; stroke-width: 1.0;" x1="192" x2="554.5" y1="417.7578" y2="417.7578"/><text fill="#000000" font-family="sans-serif" font-size="13" lengthAdjust="spacingAndGlyphs" textLength="281" x="204" y="412.6919">Webseite mit Formular auf die Ziel Webseite</text><line style="stroke: #383838; stroke-width: 1.0;" x1="187" x2="229" y1="492.2891" y2="492.2891"/><line style="stroke: #383838; stroke-width: 1.0;" x1="229" x2="229" y1="492.2891" y2="505.2891"/><line style="stroke: #383838; stroke-width: 1.0;" x1="188" x2="229" y1="505.2891" y2="505.2891"/><polygon fill="#383838" points="198,501.2891,188,505.2891,198,509.2891,194,505.2891" style="stroke: #383838; stroke-width: 1.0;"/><text fill="#000000" font-family="sans-serif" font-size="13" lengthAdjust="spacingAndGlyphs" textLength="86" x="196" y="441.8247">Formluar wird</text><text fill="#000000" font-family="sans-serif" font-size="13" lengthAdjust="spacingAndGlyphs" textLength="88" x="194" y="456.9575">per JavaScript</text><text fill="#000000" font-family="sans-serif" font-size="13" lengthAdjust="spacingAndGlyphs" textLength="80" x="202" y="472.0903">automatisch</text><text fill="#000000" font-family="sans-serif" font-size="13" lengthAdjust="spacingAndGlyphs" textLength="76" x="206" y="487.2231">abgeschickt</text><polygon fill="#383838" points="381,545.5547,391,549.5547,381,553.5547,385,549.5547" style="stroke: #383838; stroke-width: 1.0;"/><line style="stroke: #383838; stroke-width: 1.0;" x1="187" x2="387" y1="549.5547" y2="549.5547"/><text fill="#000000" font-family="sans-serif" font-size="13" lengthAdjust="spacingAndGlyphs" textLength="165" x="211" y="529.356">Operation wird aufgerufen</text><text fill="#000000" font-family="sans-serif" font-size="13" lengthAdjust="spacingAndGlyphs" textLength="182" x="194" y="544.4888">Browers hängt Session-Id an</text><line style="stroke: #383838; stroke-width: 1.0;" x1="393" x2="435" y1="608.9531" y2="608.9531"/><line style="stroke: #383838; stroke-width: 1.0;" x1="435" x2="435" y1="608.9531" y2="621.9531"/><line style="stroke: #383838; stroke-width: 1.0;" x1="394" x2="435" y1="621.9531" y2="621.9531"/><polygon fill="#383838" points="404,617.9531,394,621.9531,404,625.9531,400,621.9531" style="stroke: #383838; stroke-width: 1.0;"/><text fill="#000000" font-family="sans-serif" font-size="13" lengthAdjust="spacingAndGlyphs" textLength="92" x="436" y="573.6216">Operation wird</text><text fill="#000000" font-family="sans-serif" font-size="13" lengthAdjust="spacingAndGlyphs" textLength="128" x="400" y="588.7544">mit der Useridentiät</text><text fill="#000000" font-family="sans-serif" font-size="13" lengthAdjust="spacingAndGlyphs" textLength="69" x="459" y="603.8872">ausgeführt</text><!--
@startuml
skinparam monochrome true
skinparam shadowing false

actor U as "User"
participant UA as "Browser"
participant TS as "Normale Website"
participant MS as "Website des Angreifers"

U -> UA: navigiert zu Webseite
UA->TS: Zugriff auf die Webseite
TS->UA: Login-Maske wird angezeigt
UA->U
U->UA: Login Daten
UA->TS: Login Daten
TS->UA: Session-Id
UA->UA: Session-Id wird\rim Browser gespeichert

U->UA: surft im Internet
UA->MS: surft auf Angreifer Seite
MS->UA: Webseite mit Formular auf die Ziel Webseite
UA->UA: Formluar wird\rper JavaScript\rautomatisch\rabgeschickt
UA->TS: Operation wird aufgerufen\rBrowers hängt Session-Id an
TS->TS: Operation wird\rmit der Useridentiät\r ausgeführt
@enduml

PlantUML version 1.2019.01(Sat Feb 09 16:32:04 CET 2019)
(LGPL source distribution)
Java Runtime: OpenJDK Runtime Environment
JVM: OpenJDK 64-Bit Server VM
Java Version: 11.0.9.1+11
Operating System: Linux
OS Version: 5.9.16-200.fc33.x86_64
Default Encoding: UTF-8
Language: en
Country: US
--></g></svg>