<?xml version="1.0" encoding="UTF-8" standalone="no"?><svg xmlns="http://www.w3.org/2000/svg" xmlns:xlink="http://www.w3.org/1999/xlink" contentScriptType="application/ecmascript" contentStyleType="text/css" height="715px" preserveAspectRatio="none" style="width:838px;height:715px;" version="1.1" viewBox="0 0 838 715" width="838px" zoomAndPan="magnify"><defs/><g><line style="stroke: #383838; stroke-width: 1.0; stroke-dasharray: 5.0,5.0;" x1="69" x2="69" y1="82.2969" y2="627.9531"/><line style="stroke: #383838; stroke-width: 1.0; stroke-dasharray: 5.0,5.0;" x1="294" x2="294" y1="82.2969" y2="627.9531"/><line style="stroke: #383838; stroke-width: 1.0; stroke-dasharray: 5.0,5.0;" x1="449" x2="449" y1="82.2969" y2="627.9531"/><line style="stroke: #383838; stroke-width: 1.0; stroke-dasharray: 5.0,5.0;" x1="611" x2="611" y1="82.2969" y2="627.9531"/><line style="stroke: #383838; stroke-width: 1.0; stroke-dasharray: 5.0,5.0;" x1="762" x2="762" y1="82.2969" y2="627.9531"/><text fill="#000000" font-family="sans-serif" font-size="14" lengthAdjust="spacingAndGlyphs" textLength="116" x="8" y="78.9951">Resource Owner</text><ellipse cx="69" cy="13" fill="#F8F8F8" rx="8" ry="8" style="stroke: #383838; stroke-width: 2.0;"/><path d="M69,21 L69,48 M56,29 L82,29 M69,48 L56,63 M69,48 L82,63 " fill="none" style="stroke: #383838; stroke-width: 2.0;"/><text fill="#000000" font-family="sans-serif" font-size="14" lengthAdjust="spacingAndGlyphs" textLength="116" x="8" y="639.9482">Resource Owner</text><ellipse cx="69" cy="653.25" fill="#F8F8F8" rx="8" ry="8" style="stroke: #383838; stroke-width: 2.0;"/><path d="M69,661.25 L69,688.25 M56,669.25 L82,669.25 M69,688.25 L56,703.25 M69,688.25 L82,703.25 " fill="none" style="stroke: #383838; stroke-width: 2.0;"/><rect fill="#F8F8F8" height="30.2969" style="stroke: #383838; stroke-width: 1.5;" width="106" x="241" y="51"/><text fill="#000000" font-family="sans-serif" font-size="14" lengthAdjust="spacingAndGlyphs" textLength="92" x="248" y="70.9951">Web Browser</text><rect fill="#F8F8F8" height="30.2969" style="stroke: #383838; stroke-width: 1.5;" width="106" x="241" y="626.9531"/><text fill="#000000" font-family="sans-serif" font-size="14" lengthAdjust="spacingAndGlyphs" textLength="92" x="248" y="646.9482">Web Browser</text><rect fill="#F8F8F8" height="30.2969" style="stroke: #383838; stroke-width: 1.5;" width="152" x="373" y="51"/><text fill="#000000" font-family="sans-serif" font-size="14" lengthAdjust="spacingAndGlyphs" textLength="138" x="380" y="70.9951">Client (Web Service)</text><rect fill="#F8F8F8" height="30.2969" style="stroke: #383838; stroke-width: 1.5;" width="152" x="373" y="626.9531"/><text fill="#000000" font-family="sans-serif" font-size="14" lengthAdjust="spacingAndGlyphs" textLength="138" x="380" y="646.9482">Client (Web Service)</text><rect fill="#F8F8F8" height="30.2969" style="stroke: #383838; stroke-width: 1.5;" width="153" x="535" y="51"/><text fill="#000000" font-family="sans-serif" font-size="14" lengthAdjust="spacingAndGlyphs" textLength="139" x="542" y="70.9951">Authorization Server</text><rect fill="#F8F8F8" height="30.2969" style="stroke: #383838; stroke-width: 1.5;" width="153" x="535" y="626.9531"/><text fill="#000000" font-family="sans-serif" font-size="14" lengthAdjust="spacingAndGlyphs" textLength="139" x="542" y="646.9482">Authorization Server</text><rect fill="#F8F8F8" height="30.2969" style="stroke: #383838; stroke-width: 1.5;" width="129" x="698" y="51"/><text fill="#000000" font-family="sans-serif" font-size="14" lengthAdjust="spacingAndGlyphs" textLength="115" x="705" y="70.9951">Resource Server</text><rect fill="#F8F8F8" height="30.2969" style="stroke: #383838; stroke-width: 1.5;" width="129" x="698" y="626.9531"/><text fill="#000000" font-family="sans-serif" font-size="14" lengthAdjust="spacingAndGlyphs" textLength="115" x="705" y="646.9482">Resource Server</text><polygon fill="#383838" points="282,109.4297,292,113.4297,282,117.4297,286,113.4297" style="stroke: #383838; stroke-width: 1.0;"/><line style="stroke: #383838; stroke-width: 1.0;" x1="69" x2="288" y1="113.4297" y2="113.4297"/><text fill="#000000" font-family="sans-serif" font-size="13" lengthAdjust="spacingAndGlyphs" textLength="113" x="76" y="108.3638">ruft Operation auf</text><polygon fill="#383838" points="437,153.6953,447,157.6953,437,161.6953,441,157.6953" style="stroke: #383838; stroke-width: 1.0;"/><line style="stroke: #383838; stroke-width: 1.0;" x1="294" x2="443" y1="157.6953" y2="157.6953"/><text fill="#000000" font-family="sans-serif" font-size="13" lengthAdjust="spacingAndGlyphs" textLength="88" x="323" y="137.4966">Operation mit</text><text fill="#000000" font-family="sans-serif" font-size="13" lengthAdjust="spacingAndGlyphs" textLength="106" x="305" y="152.6294">Resourcenzugriff</text><line style="stroke: #383838; stroke-width: 1.0;" x1="449" x2="491" y1="201.9609" y2="201.9609"/><line style="stroke: #383838; stroke-width: 1.0;" x1="491" x2="491" y1="201.9609" y2="214.9609"/><line style="stroke: #383838; stroke-width: 1.0;" x1="450" x2="491" y1="214.9609" y2="214.9609"/><polygon fill="#383838" points="460,210.9609,450,214.9609,460,218.9609,456,214.9609" style="stroke: #383838; stroke-width: 1.0;"/><text fill="#000000" font-family="sans-serif" font-size="13" lengthAdjust="spacingAndGlyphs" textLength="100" x="462" y="181.7622">Benötigt Zugriff</text><text fill="#000000" font-family="sans-serif" font-size="13" lengthAdjust="spacingAndGlyphs" textLength="106" x="456" y="196.895">auf die Resource</text><polygon fill="#383838" points="305,255.2266,295,259.2266,305,263.2266,301,259.2266" style="stroke: #383838; stroke-width: 1.0;"/><line style="stroke: #383838; stroke-width: 1.0;" x1="299" x2="448" y1="259.2266" y2="259.2266"/><text fill="#000000" font-family="sans-serif" font-size="13" lengthAdjust="spacingAndGlyphs" textLength="71" x="371" y="239.0278">Redirect zu</text><text fill="#000000" font-family="sans-serif" font-size="13" lengthAdjust="spacingAndGlyphs" textLength="131" x="311" y="254.1606">Authorization Server</text><polygon fill="#383838" points="599.5,284.3594,609.5,288.3594,599.5,292.3594,603.5,288.3594" style="stroke: #383838; stroke-width: 1.0;"/><line style="stroke: #383838; stroke-width: 1.0;" x1="294" x2="605.5" y1="288.3594" y2="288.3594"/><text fill="#000000" font-family="sans-serif" font-size="13" lengthAdjust="spacingAndGlyphs" textLength="141" x="301" y="283.2935">Authorization Request</text><polygon fill="#383838" points="305,313.4922,295,317.4922,305,321.4922,301,317.4922" style="stroke: #383838; stroke-width: 1.0;"/><line style="stroke: #383838; stroke-width: 1.0;" x1="299" x2="610.5" y1="317.4922" y2="317.4922"/><text fill="#000000" font-family="sans-serif" font-size="13" lengthAdjust="spacingAndGlyphs" textLength="112" x="311" y="312.4263">Authorization GUI</text><polygon fill="#383838" points="80,342.625,70,346.625,80,350.625,76,346.625" style="stroke: #383838; stroke-width: 1.0;"/><line style="stroke: #383838; stroke-width: 1.0;" x1="74" x2="293" y1="346.625" y2="346.625"/><text fill="#000000" font-family="sans-serif" font-size="13" lengthAdjust="spacingAndGlyphs" textLength="201" x="86" y="341.5591">Anzeige des Authorization GUIs</text><polygon fill="#383838" points="282,371.7578,292,375.7578,282,379.7578,286,375.7578" style="stroke: #383838; stroke-width: 1.0;"/><line style="stroke: #383838; stroke-width: 1.0;" x1="69" x2="288" y1="375.7578" y2="375.7578"/><text fill="#000000" font-family="sans-serif" font-size="13" lengthAdjust="spacingAndGlyphs" textLength="170" x="76" y="370.6919">Authorization  durchführen</text><polygon fill="#383838" points="599.5,400.8906,609.5,404.8906,599.5,408.8906,603.5,404.8906" style="stroke: #383838; stroke-width: 1.0;"/><line style="stroke: #383838; stroke-width: 1.0;" x1="294" x2="605.5" y1="404.8906" y2="404.8906"/><text fill="#000000" font-family="sans-serif" font-size="13" lengthAdjust="spacingAndGlyphs" textLength="122" x="301" y="399.8247">Authorization Code</text><polygon fill="#383838" points="305,445.1563,295,449.1563,305,453.1563,301,449.1563" style="stroke: #383838; stroke-width: 1.0;"/><line style="stroke: #383838; stroke-width: 1.0;" x1="299" x2="610.5" y1="449.1563" y2="449.1563"/><text fill="#000000" font-family="sans-serif" font-size="13" lengthAdjust="spacingAndGlyphs" textLength="81" x="352" y="428.9575">Redirect inkl.</text><text fill="#000000" font-family="sans-serif" font-size="13" lengthAdjust="spacingAndGlyphs" textLength="122" x="311" y="444.0903">Authorization Code</text><polygon fill="#383838" points="437,474.2891,447,478.2891,437,482.2891,441,478.2891" style="stroke: #383838; stroke-width: 1.0;"/><line style="stroke: #383838; stroke-width: 1.0;" x1="294" x2="443" y1="478.2891" y2="478.2891"/><text fill="#000000" font-family="sans-serif" font-size="13" lengthAdjust="spacingAndGlyphs" textLength="122" x="301" y="473.2231">Authorization Code</text><polygon fill="#383838" points="599.5,503.4219,609.5,507.4219,599.5,511.4219,603.5,507.4219" style="stroke: #383838; stroke-width: 1.0;"/><line style="stroke: #383838; stroke-width: 1.0;" x1="449" x2="605.5" y1="507.4219" y2="507.4219"/><text fill="#000000" font-family="sans-serif" font-size="13" lengthAdjust="spacingAndGlyphs" textLength="122" x="456" y="502.356">Authorization Code</text><polygon fill="#383838" points="460,547.6875,450,551.6875,460,555.6875,456,551.6875" style="stroke: #383838; stroke-width: 1.0;"/><line style="stroke: #383838; stroke-width: 1.0;" x1="454" x2="610.5" y1="551.6875" y2="551.6875"/><text fill="#000000" font-family="sans-serif" font-size="13" lengthAdjust="spacingAndGlyphs" textLength="91" x="466" y="531.4888">Access Token,</text><text fill="#000000" font-family="sans-serif" font-size="13" lengthAdjust="spacingAndGlyphs" textLength="90" x="467" y="546.6216">Refresh Token</text><polygon fill="#383838" points="750.5,576.8203,760.5,580.8203,750.5,584.8203,754.5,580.8203" style="stroke: #383838; stroke-width: 1.0;"/><line style="stroke: #383838; stroke-width: 1.0;" x1="449" x2="756.5" y1="580.8203" y2="580.8203"/><text fill="#000000" font-family="sans-serif" font-size="13" lengthAdjust="spacingAndGlyphs" textLength="158" x="456" y="575.7544">Zugriff mit Access Token</text><polygon fill="#383838" points="460,605.9531,450,609.9531,460,613.9531,456,609.9531" style="stroke: #383838; stroke-width: 1.0;"/><line style="stroke: #383838; stroke-width: 1.0;" x1="454" x2="761.5" y1="609.9531" y2="609.9531"/><text fill="#000000" font-family="sans-serif" font-size="13" lengthAdjust="spacingAndGlyphs" textLength="134" x="466" y="604.8872">Angefragte Resource</text><!--
@startuml
skinparam monochrome true
skinparam shadowing false

actor RO as "Resource Owner"
participant UA as "Web Browser"
participant WS as "Client (Web Service)"
participant AS as "Authorization Server"
participant RS as "Resource Server"

RO -> UA: ruft Operation auf
UA -> WS: Operation mit\r Resourcenzugriff
WS->WS: Benötigt Zugriff\rauf die Resource
WS -> UA: Redirect zu\rAuthorization Server
 
UA-> AS: Authorization Request
AS-> UA: Authorization GUI

UA->RO: Anzeige des Authorization GUIs
RO->UA: Authorization  durchführen
UA->AS: Authorization Code
AS->UA: Redirect inkl.\rAuthorization Code
UA->WS: Authorization Code
WS->AS: Authorization Code
AS->WS: Access Token,\rRefresh Token
WS->RS: Zugriff mit Access Token
RS->WS: Angefragte Resource
@enduml

PlantUML version 1.2019.01(Sat Feb 09 16:32:04 CET 2019)
(LGPL source distribution)
Java Runtime: OpenJDK Runtime Environment
JVM: OpenJDK 64-Bit Server VM
Java Version: 11.0.9.1+11
Operating System: Linux
OS Version: 5.9.16-200.fc33.x86_64
Default Encoding: UTF-8
Language: en
Country: US
--></g></svg>